<?xml version="1.0" encoding="iso-8859-1"?>
<!-- Generator: Adobe Illustrator 19.0.0, SVG Export Plug-In . SVG Version: 6.00 Build 0)  -->
<svg version="1.1" id="Capa_1" xmlns="http://www.w3.org/2000/svg" xmlns:xlink="http://www.w3.org/1999/xlink" x="0px" y="0px"
	 viewBox="0 0 512 512" style="enable-background:new 0 0 512 512;" xml:space="preserve">
<path style="fill:#959CB3;" d="M502.198,284.74c-48.855,71.105-141.801,102.013-225.666,69.348
	c-97.852-38.114-146.28-148.337-108.166-246.189c17.222-44.214,49.167-78.334,88.039-98.942
	C157.775,9.173,64.737,68.875,26.777,166.334c-49.5,127.084,13.395,270.233,140.478,319.733
	c127.084,49.5,270.233-13.395,319.732-140.478C494.788,325.561,499.791,305.136,502.198,284.74z"/>
<g>
	<path style="fill:#7C8293;" d="M129.994,69.527c-31.729,81.459-3.475,171.483,63.331,221.351
		c-37.979-50.827-49.684-119.502-24.96-182.979c17.221-44.214,49.167-78.334,88.039-98.942c-37.849,0.083-74.87,8.935-108.275,25.31
		C141.011,45.149,134.902,56.926,129.994,69.527z"/>
	<path style="fill:#7C8293;" d="M428.137,348.172c-61.528,99.02-186.687,143.368-299.254,99.523
		c-23.953-9.329-45.622-21.989-64.691-37.238c26.22,32.765,61.147,59.284,103.063,75.61
		c127.084,49.5,270.233-13.395,319.732-140.478c7.8-20.027,12.804-40.452,15.211-60.848
		C483.159,312.451,457.422,334.055,428.137,348.172z"/>
</g>
<g>
	<circle style="fill:#AEB7CE;" cx="113.679" cy="212.32" r="28.363"/>
	<circle style="fill:#AEB7CE;" cx="312.999" cy="408.89" r="19.883"/>
	<circle style="fill:#AEB7CE;" cx="301.059" cy="460.24" r="14.06"/>
	<circle style="fill:#AEB7CE;" cx="227.669" cy="438.03" r="42.1"/>
	<circle style="fill:#AEB7CE;" cx="105.019" cy="338.9" r="19.705"/>
	<circle style="fill:#AEB7CE;" cx="53.069" cy="203.66" r="11.717"/>
</g>
<path d="M505.352,276.357c-3.86-1.452-8.203-0.084-10.536,3.311c-15.286,22.247-35.82,41.114-59.382,54.559
	c-23.306,13.299-49.717,21.394-76.378,23.408c-4.932,0.372-8.629,4.673-8.256,9.606c0.373,4.931,4.668,8.637,9.606,8.256
	c29.291-2.214,58.305-11.104,83.906-25.712c15.569-8.884,29.936-19.923,42.572-32.633c-2.277,8.519-5.028,16.93-8.243,25.185
	c-23.072,59.234-67.83,105.937-126.029,131.508c-58.2,25.57-122.873,26.945-182.107,3.874
	c-59.234-23.072-105.937-67.83-131.508-126.029c-25.57-58.199-26.946-122.872-3.874-182.106
	c4.509-11.575,9.932-22.841,16.119-33.485c2.485-4.277,1.033-9.759-3.243-12.244c-4.277-2.488-9.759-1.034-12.244,3.243
	c-6.65,11.442-12.479,23.549-17.322,35.985c-24.81,63.692-23.33,133.233,4.166,195.814c27.495,62.58,77.714,110.706,141.407,135.514
	C194.132,506.148,225.568,512,256.958,512c34.97,0,69.882-7.265,102.861-21.754c62.58-27.495,110.706-77.714,135.514-141.406
	c7.92-20.332,13.223-41.545,15.761-63.05C511.576,281.7,509.206,277.807,505.352,276.357z"/>
<path d="M56.41,111.382c3.905,3.036,9.532,2.331,12.569-1.576c22.048-28.369,50.861-51.752,83.324-67.621
	c22.054-10.781,45.822-18.113,70.068-21.709c-27.743,21.846-49.373,50.854-62.35,84.172
	c-39.846,102.297,10.963,217.94,113.26,257.785c17.859,6.957,36.513,11.302,55.445,12.915c0.259,0.022,0.515,0.033,0.771,0.033
	c4.602,0,8.516-3.527,8.914-8.196c0.42-4.929-3.235-9.265-8.164-9.685c-17.224-1.468-34.203-5.424-50.464-11.758
	c-93.093-36.261-139.33-141.498-103.071-234.592c15.766-40.476,45.558-73.959,83.888-94.281c3.639-1.929,5.493-6.089,4.495-10.085
	C264.097,2.797,260.515,0,256.405,0c-0.006,0-0.013,0-0.02,0c-38.492,0.084-77.204,9.107-111.949,26.091
	C109.532,43.153,78.549,68.3,54.834,98.814C51.798,102.72,52.504,108.347,56.41,111.382z"/>
<g>
</g>
<g>
</g>
<g>
</g>
<g>
</g>
<g>
</g>
<g>
</g>
<g>
</g>
<g>
</g>
<g>
</g>
<g>
</g>
<g>
</g>
<g>
</g>
<g>
</g>
<g>
</g>
<g>
</g>
</svg>
